<?xml version="1.0" encoding="UTF-8" standalone="no"?>
<svg width="243px" height="211px" viewBox="0 0 243 211" version="1.1" xmlns="http://www.w3.org/2000/svg" xmlns:xlink="http://www.w3.org/1999/xlink" xmlns:sketch="http://www.bohemiancoding.com/sketch/ns">
    <title>Slice 1</title>
    <description>Created with Sketch (http://www.bohemiancoding.com/sketch)</description>
    <defs></defs>
    <g id="Page-1" stroke="none" stroke-width="1" fill="none" fill-rule="evenodd" sketch:type="MSPage">
        <g id="Imported-Layers" sketch:type="MSLayerGroup" transform="translate(1.000000, 0.000000)">
            <path d="M242,174 L76,174 L79.443,168 L231,168 L191,98 L166,98 L192.375,143 L93.888,143 L97,137.615 L181,138 L102.578,0 L142,0 L242,174" id="Fill-1" fill="#F1F1F1" sketch:type="MSShapeGroup"></path>
            <path d="M191,98 L178.5,119.533 L166,98 L191,98" id="Fill-2" fill="#FFFFFF" sketch:type="MSShapeGroup"></path>
            <path d="M191.778,143 L179.375,168 L79,168 L93.888,143 L191.778,143" id="Fill-3" fill="#FFFFFF" sketch:type="MSShapeGroup"></path>
            <path d="M242,174 L76,174 L118.508,100.391 L100.46,69.364 L18.756,211 L221,211 L242,174" id="Fill-4" fill="#EDEDED" sketch:type="MSShapeGroup"></path>
            <path d="M191,98 L178.5,119.533 L191.75,142.833 L179.375,168 L231,168 L191,98" id="Fill-5" fill="#FBFBFB" sketch:type="MSShapeGroup"></path>
            <path d="M100.46,69.552 L140.114,138 L181,138 L102.578,0 L-0.137,177.809 L4.015,185 L103.275,13.49 L145.717,87 L131.893,111.378 L99.906,55.975 L14.68,203.473 L18.833,211.083 L100.46,69.552" id="Fill-6" fill="#FBFBFB" sketch:type="MSShapeGroup"></path>
            <path d="M103.223,13.503 L4.015,185 L25.417,184.917 L99.906,56 L128,56 L103.223,13.503" id="Fill-7" fill="#FFFFFF" sketch:type="MSShapeGroup"></path>
            <path d="M99.922,56 L128,56 L145.717,87 L131.893,111.378 L99.922,56" id="Fill-8" fill="#EDEDED" sketch:type="MSShapeGroup"></path>
        </g>
    </g>
</svg>